<svg id="Layer_3" data-name="Layer 3" xmlns="http://www.w3.org/2000/svg" viewBox="0 0 985 957"><path d="M1402,112V374H667.06A113.19,113.19,0,0,0,554,487.06V827.28A114.86,114.86,0,0,0,668.72,942h593.89A101.5,101.5,0,0,0,1364,840.61V610a45,45,0,0,0-45-45h-2.78a45,45,0,0,0-32.31,13.68c-5.26,5.42-8.57,11.13-15.83,23.63-9.19,15.83-24.58,42.33-42.26,64.3-23,28.63-35.2,31.26-35.93,31.39l-49.54-.15c34.45-33.44,68.44-72.43,89.21-109.69a377.83,377.83,0,0,0,17.21-35c3.48-8.12,12.22-16.5,24-23,12.58-7,27.62-11.1,40.24-11.1h31a60.07,60.07,0,0,1,60,60V871.44A107.55,107.55,0,0,1,1294.44,979H639.72A132.71,132.71,0,0,1,507,846.28V112h48V232.78A103.34,103.34,0,0,0,658.22,336H838.78A103.34,103.34,0,0,0,942,232.78V112h45V234.78A103.34,103.34,0,0,0,1090.22,338h166.56A103.34,103.34,0,0,0,1360,234.78V112h42m43.11-45H1316.89a1.89,1.89,0,0,0-1.89,1.89V234.78A58.23,58.23,0,0,1,1256.78,293H1090.22A58.23,58.23,0,0,1,1032,234.78V68.89a1.89,1.89,0,0,0-1.89-1.89H898.89A1.89,1.89,0,0,0,897,68.89V232.78A58.23,58.23,0,0,1,838.78,291H658.22A58.23,58.23,0,0,1,600,232.78V68.89A1.89,1.89,0,0,0,598.11,67H463.89A1.89,1.89,0,0,0,462,68.89V846.28A177.72,177.72,0,0,0,639.72,1024h654.72A152.56,152.56,0,0,0,1447,871.44V579a105,105,0,0,0-105-105h-31c-40.54,0-89.62,24.12-105.59,61.39a331.52,331.52,0,0,1-15.16,30.86c-38.77,69.56-133.4,149.18-170.07,172.77a1.89,1.89,0,0,0,1,3.48L1190,743c59.44,0,118.56-125.1,126.22-133H1319V840.61A56.39,56.39,0,0,1,1262.61,897H668.72A69.73,69.73,0,0,1,599,827.28V487.06A68.06,68.06,0,0,1,667.06,419h778.05a1.89,1.89,0,0,0,1.89-1.89V68.89a1.89,1.89,0,0,0-1.89-1.89Z" transform="translate(-462 -67)"/></svg>